# xmcd
#
# Track frame offsets:
#	150
#	13295
#	26304
#	38474
#	50838
#	61831
#	74342
#	85191
#	97052
#	109424
#	121755
#
# Disc length: 1786 seconds
# Revision: 1
# Processed by: cddbd v1.5.2PL0 Copyright (c) Steve Scherf et al.
# Submitted via: dBpowerAMP V12.0
#
DISCID=8e06f80b
DTITLE=Hank Williams - Icon
DYEAR=2011
DGENRE=Country
TTITLE0=Hey, Good Lookin'
TTITLE1=Jambalaya (On The Bayou)
TTITLE2=Your Cheatin' Heart
TTITLE3=Move It On Over
TTITLE4=I'll Never Get Out Of This World Alive
TTITLE5=I'm So Lonesome I Could Cry
TTITLE6=Why Dont You Love Me (Like You Used To Do)
TTITLE7=Long Gone Lonesome Blues
TTITLE8=Honky Tonkin'
TTITLE9=I Saw The Light
TTITLE10=Lovesick Blues
EXTD=
EXTT0=
EXTT1=
EXTT2=
EXTT3=
EXTT4=
EXTT5=
EXTT6=
EXTT7=
EXTT8=
EXTT9=
EXTT10=
PLAYORDER=
